<svg width="175" height="32" viewBox="0 0 175 32" fill="none" xmlns="http://www.w3.org/2000/svg">
<path fill-rule="evenodd" clip-rule="evenodd" d="M14.8261 18.145C14.6808 18.203 14.5251 18.2327 14.3682 18.2327V21.8259C14.5251 21.8259 14.6808 21.8555 14.8261 21.9137C14.971 21.9717 15.103 22.0567 15.2142 22.1641C15.325 22.2715 15.4131 22.3984 15.4732 22.5387C15.5335 22.6788 15.5642 22.8291 15.5642 22.9805H25.3279C25.3279 22.6745 25.4536 22.3803 25.6782 22.1641C25.9028 21.9473 26.2071 21.8259 26.5242 21.8259V18.2327C26.2071 18.2327 25.9028 18.1113 25.6782 17.8946C25.4536 17.6782 25.3279 17.3842 25.3279 17.0781H15.5642C15.5642 17.2295 15.5335 17.3797 15.4732 17.52C15.4131 17.6602 15.325 17.7872 15.2142 17.8946C15.103 18.0019 14.971 18.0868 14.8261 18.145ZM22.2415 20.0296C22.2415 20.9863 21.4378 21.7619 20.4465 21.7619C19.4551 21.7619 18.6515 20.9863 18.6515 20.0296C18.6515 19.0729 19.4551 18.2973 20.4465 18.2973C21.4378 18.2973 22.2415 19.0729 22.2415 20.0296Z" fill="#6941C6"/>
<path fill-rule="evenodd" clip-rule="evenodd" d="M1.84277 20.8885C1.84277 21.0412 1.84658 21.1931 1.85409 21.344C1.84658 21.4876 1.84277 21.632 1.84277 21.7773C1.84277 26.4411 5.76028 30.2218 10.5928 30.2218H33.6191C38.4516 30.2218 42.3691 26.4411 42.3691 21.7773C42.3691 18.8107 40.7839 16.2013 38.3864 14.6951C38.5801 14.1268 38.6849 13.5194 38.6849 12.8885C38.6849 9.69743 36.0045 7.11068 32.698 7.11068C32.0164 7.11068 31.3612 7.22063 30.7507 7.42317C28.7738 4.05234 25.0244 1.77734 20.7244 1.77734C14.7432 1.77734 9.82738 6.17893 9.26489 11.8088C5.00828 12.7871 1.84277 16.4811 1.84277 20.8885ZM14.5882 14.539L29.6912 11.4622L31.2985 19.5477L30.0731 19.8317L29.3333 13.0439L14.5882 14.539ZM13.7804 15.3392H28.4932V21.9813L29.6946 21.8582L28.8034 13.6766L13.7804 15.3392ZM27.8963 24.1455H12.9988V15.9163H27.8963V24.1455Z" fill="url(#paint0_linear_11557_10847)"/>
<path d="M64.7754 13.9648H61.0507C60.9826 13.4998 60.8438 13.0867 60.634 12.7256C60.4242 12.359 60.1549 12.0471 59.8261 11.79C59.4973 11.5328 59.1174 11.3358 58.6866 11.199C58.2614 11.0622 57.7993 10.9939 57.3004 10.9939C56.399 10.9939 55.6137 11.21 54.9448 11.6422C54.2758 12.069 53.7571 12.6927 53.3886 13.5134C53.0201 14.3287 52.8357 15.319 52.8357 16.4845C52.8357 17.6827 53.0201 18.6893 53.3886 19.5046C53.7627 20.3198 54.2843 20.9354 54.9533 21.3512C55.6223 21.767 56.3962 21.9749 57.2749 21.9749C57.7682 21.9749 58.2246 21.912 58.6441 21.7861C59.0693 21.6604 59.4462 21.4771 59.7751 21.2363C60.1039 20.9901 60.376 20.6919 60.5915 20.3417C60.8126 19.9916 60.9657 19.5922 61.0507 19.1435L64.7754 19.1599C64.6791 19.9314 64.4382 20.6755 64.0526 21.3923C63.6728 22.1036 63.1597 22.7409 62.5133 23.3045C61.8727 23.8626 61.1074 24.3058 60.2173 24.6341C59.3329 24.9568 58.3322 25.1182 57.2154 25.1182C55.662 25.1182 54.273 24.779 53.0484 24.1005C51.8295 23.4221 50.8657 22.44 50.1571 21.1542C49.454 19.8685 49.1025 18.3118 49.1025 16.4845C49.1025 14.6515 49.4597 13.0922 50.174 11.8064C50.8884 10.5206 51.8579 9.54126 53.0824 8.86826C54.3069 8.1898 55.6847 7.85059 57.2154 7.85059C58.2246 7.85059 59.16 7.98737 60.0217 8.26093C60.8892 8.53451 61.6573 8.93388 62.3263 9.45913C62.9952 9.97895 63.5396 10.6164 63.9591 11.3714C64.3843 12.1265 64.6564 12.991 64.7754 13.9648ZM69.6358 25.1265C68.8025 25.1265 68.0597 24.9869 67.4078 24.7079C66.7558 24.4234 66.2399 24.0048 65.8601 23.4522C65.4859 22.8941 65.2988 22.1993 65.2988 21.3677C65.2988 20.6673 65.4321 20.0791 65.6985 19.6031C65.965 19.1271 66.3278 18.7441 66.787 18.4541C67.2463 18.1641 67.7678 17.9453 68.3517 17.7975C68.9414 17.6498 69.5593 17.5459 70.2056 17.4857C70.9653 17.4091 71.5776 17.338 72.0425 17.2723C72.5074 17.2012 72.8447 17.0972 73.0545 16.9605C73.2642 16.8237 73.3691 16.6212 73.3691 16.3531V16.3038C73.3691 15.7841 73.199 15.382 72.8589 15.0974C72.5244 14.8129 72.0482 14.6707 71.4302 14.6707C70.7782 14.6707 70.2595 14.8102 69.8739 15.0893C69.4885 15.3628 69.2333 15.7075 69.1086 16.1233L65.758 15.8607C65.9281 15.0947 66.2626 14.4326 66.7615 13.8746C67.2604 13.311 67.9039 12.8788 68.6919 12.5779C69.4856 12.2715 70.4041 12.1182 71.4472 12.1182C72.1729 12.1182 72.8674 12.2004 73.5307 12.3645C74.1997 12.5286 74.7922 12.783 75.3081 13.1278C75.8296 13.4725 76.2406 13.9156 76.5412 14.4573C76.8416 14.9934 76.9918 15.6364 76.9918 16.386V24.8885H73.5562V23.1404H73.4542C73.2444 23.5343 72.9638 23.8817 72.6123 24.1827C72.2607 24.4781 71.8384 24.7107 71.3451 24.8803C70.8519 25.0444 70.2821 25.1265 69.6358 25.1265ZM70.6733 22.7136C71.2062 22.7136 71.6768 22.6124 72.085 22.4099C72.4932 22.202 72.8136 21.9229 73.0459 21.5728C73.2784 21.2226 73.3947 20.826 73.3947 20.3828V19.045C73.2813 19.1162 73.1253 19.1818 72.9269 19.242C72.7342 19.2967 72.5159 19.3487 72.2721 19.398C72.0284 19.4417 71.7846 19.4828 71.5408 19.521C71.297 19.5539 71.0759 19.5839 70.8774 19.6113C70.4523 19.6715 70.0809 19.7672 69.7634 19.8986C69.4459 20.0299 69.1994 20.2077 69.0235 20.432C68.8478 20.6509 68.7599 20.9245 68.7599 21.2527C68.7599 21.7287 68.9385 22.0925 69.2957 22.3443C69.6585 22.5905 70.1177 22.7136 70.6733 22.7136ZM89.2337 15.8771L85.9172 16.0741C85.8605 15.8005 85.7386 15.5543 85.5515 15.3354C85.3644 15.1111 85.1178 14.9333 84.8117 14.802C84.5112 14.6652 84.1512 14.5968 83.7316 14.5968C83.1703 14.5968 82.697 14.7117 82.3115 14.9415C81.9259 15.1658 81.7332 15.4668 81.7332 15.8443C81.7332 16.1452 81.8579 16.3996 82.1074 16.6075C82.3568 16.8155 82.7849 16.9823 83.3915 17.1082L85.7557 17.5677C87.0255 17.8194 87.9723 18.2243 88.596 18.7824C89.2195 19.3405 89.5314 20.0736 89.5314 20.9819C89.5314 21.8081 89.2791 22.533 88.7746 23.1567C88.2756 23.7805 87.5896 24.2675 86.7166 24.6176C85.8491 24.9623 84.8485 25.1347 83.7146 25.1347C81.9855 25.1347 80.6078 24.7872 79.5816 24.0924C78.5612 23.392 77.9631 22.44 77.7873 21.2363L81.3505 21.0557C81.4582 21.5646 81.719 21.9531 82.1329 22.2212C82.5468 22.4837 83.0769 22.6151 83.7232 22.6151C84.3581 22.6151 84.8683 22.4974 85.2539 22.2622C85.645 22.0214 85.8435 21.7123 85.8491 21.3348C85.8435 21.0174 85.7046 20.7575 85.4324 20.5551C85.1603 20.3472 84.7408 20.1885 84.1738 20.0791L81.9118 19.6441C80.6362 19.398 79.6866 18.9711 79.0629 18.3638C78.445 17.7565 78.136 16.9823 78.136 16.0413C78.136 15.2315 78.3627 14.5339 78.8163 13.9485C79.2755 13.363 79.919 12.9116 80.7467 12.5942C81.5801 12.2769 82.5553 12.1182 83.6721 12.1182C85.3219 12.1182 86.6201 12.4548 87.567 13.1278C88.5195 13.8007 89.075 14.7172 89.2337 15.8771ZM93.9982 17.6005V24.8885H90.3757V8.08038H93.896V14.5065H94.0498C94.3446 13.7624 94.8207 13.1797 95.4784 12.7584C96.136 12.3317 96.9603 12.1182 97.9532 12.1182C98.8596 12.1182 99.6507 12.3098 100.326 12.6927C101.006 13.0702 101.533 13.6147 101.907 14.326C102.287 15.0318 102.474 15.8771 102.468 16.862V24.8885H98.8457V17.4857C98.8513 16.7087 98.6477 16.1042 98.2332 15.6719C97.8252 15.2397 97.2523 15.0236 96.5155 15.0236C96.0227 15.0236 95.5861 15.1248 95.2057 15.3272C94.8318 15.5297 94.5371 15.8251 94.3215 16.2136C94.1115 16.5966 94.0038 17.0589 93.9982 17.6005ZM109.784 25.1347C108.447 25.1347 107.295 24.8611 106.332 24.314C105.373 23.7613 104.636 22.9954 104.121 22.016C103.61 21.0366 103.355 19.9095 103.355 18.6347C103.355 17.3434 103.613 16.2109 104.129 15.2369C104.651 14.2575 105.391 13.4943 106.349 12.9472C107.307 12.3946 108.447 12.1182 109.768 12.1182C110.907 12.1182 111.904 12.318 112.761 12.7173C113.617 13.1168 114.295 13.6776 114.794 14.3998C115.292 15.1221 115.567 15.9701 115.618 16.944H112.199C112.103 16.3148 111.848 15.8087 111.434 15.4257C111.026 15.0373 110.491 14.843 109.827 14.843C109.266 14.843 108.776 14.9908 108.356 15.2861C107.942 15.5762 107.619 16.0002 107.387 16.5583C107.154 17.1164 107.038 17.7921 107.038 18.5854C107.038 19.3897 107.151 20.0736 107.377 20.6372C107.61 21.2007 107.937 21.6302 108.356 21.9257C108.776 22.2212 109.266 22.3689 109.827 22.3689C110.241 22.3689 110.612 22.2869 110.941 22.1227C111.275 21.9585 111.551 21.7205 111.766 21.4086C111.987 21.0913 112.132 20.711 112.199 20.2678H115.618C115.562 21.2309 115.289 22.0789 114.802 22.8121C114.32 23.5397 113.654 24.1088 112.803 24.5191C111.953 24.9295 110.947 25.1347 109.784 25.1347ZM120.124 8.08038V24.8885H116.5V8.08038H120.124ZM127.49 25.1347C126.17 25.1347 125.028 24.8638 124.063 24.3221C123.105 23.775 122.366 23.0145 121.844 22.0406C121.322 21.0613 121.062 19.9259 121.062 18.6347C121.062 17.3325 121.322 16.1944 121.844 15.2205C122.366 14.2412 123.105 13.4806 124.063 12.9389C125.028 12.3918 126.17 12.1182 127.49 12.1182C128.811 12.1182 129.951 12.3918 130.909 12.9389C131.873 13.4806 132.615 14.2412 133.137 15.2205C133.659 16.1944 133.919 17.3325 133.919 18.6347C133.919 19.9259 133.659 21.0613 133.137 22.0406C132.615 23.0145 131.873 23.775 130.909 24.3221C129.951 24.8638 128.811 25.1347 127.49 25.1347ZM127.508 22.4263C128.109 22.4263 128.61 22.2622 129.013 21.9339C129.415 21.6002 129.719 21.1461 129.923 20.5716C130.132 19.9971 130.237 19.3432 130.237 18.6101C130.237 17.8769 130.132 17.223 129.923 16.6485C129.719 16.0741 129.415 15.6199 129.013 15.2861C128.61 14.9525 128.109 14.7855 127.508 14.7855C126.901 14.7855 126.391 14.9525 125.977 15.2861C125.568 15.6199 125.26 16.0741 125.05 16.6485C124.846 17.223 124.744 17.8769 124.744 18.6101C124.744 19.3432 124.846 19.9971 125.05 20.5716C125.26 21.1461 125.568 21.6002 125.977 21.9339C126.391 22.2622 126.901 22.4263 127.508 22.4263ZM143.215 19.521V12.2824H146.837V24.8885H143.359V22.5987H143.223C142.928 23.3373 142.438 23.9309 141.752 24.3797C141.071 24.8283 140.242 25.0526 139.261 25.0526C138.387 25.0526 137.619 24.8611 136.956 24.4781C136.293 24.0951 135.774 23.5507 135.4 22.8449C135.031 22.1391 134.844 21.2938 134.839 20.3089V12.2824H138.461V19.6852C138.467 20.4293 138.674 21.0174 139.082 21.4497C139.49 21.882 140.037 22.0981 140.723 22.0981C141.16 22.0981 141.568 22.0023 141.947 21.8108C142.328 21.6139 142.634 21.3238 142.867 20.9408C143.104 20.5579 143.22 20.0845 143.215 19.521ZM153.111 25.0936C152.119 25.0936 151.221 24.8474 150.416 24.355C149.617 23.8571 148.981 23.1267 148.511 22.1637C148.047 21.1953 147.814 20.008 147.814 18.6019C147.814 17.1574 148.055 15.9565 148.537 14.9989C149.018 14.036 149.659 13.3165 150.459 12.8405C151.264 12.359 152.145 12.1182 153.103 12.1182C153.834 12.1182 154.444 12.2386 154.931 12.4794C155.425 12.7147 155.822 13.0101 156.122 13.3657C156.428 13.7159 156.661 14.0606 156.82 14.3998H156.93V8.08038H160.544V24.8885H156.972V22.8695H156.82C156.649 23.2197 156.409 23.5671 156.097 23.9118C155.791 24.251 155.391 24.5328 154.897 24.7572C154.41 24.9814 153.815 25.0936 153.111 25.0936ZM154.26 22.3115C154.844 22.3115 155.337 22.1582 155.739 21.8518C156.148 21.54 156.459 21.105 156.675 20.5469C156.896 19.9888 157.007 19.335 157.007 18.5854C157.007 17.8358 156.899 17.1847 156.683 16.6321C156.468 16.0796 156.156 15.6527 155.748 15.3518C155.339 15.0509 154.844 14.9005 154.26 14.9005C153.665 14.9005 153.163 15.0564 152.755 15.3683C152.346 15.6801 152.037 16.1124 151.827 16.665C151.617 17.2176 151.513 17.8577 151.513 18.5854C151.513 19.3186 151.617 19.9669 151.827 20.5305C152.043 21.0885 152.352 21.5263 152.755 21.8437C153.163 22.1555 153.665 22.3115 154.26 22.3115ZM164.322 29.6157C163.864 29.6157 163.433 29.5802 163.03 29.5091C162.633 29.4434 162.304 29.3586 162.044 29.2546L162.86 26.6448C163.285 26.7706 163.668 26.839 164.007 26.85C164.354 26.8609 164.651 26.7843 164.901 26.6202C165.156 26.456 165.363 26.177 165.522 25.783L165.734 25.2495L161.048 12.2824H164.859L167.563 21.54H167.699L170.428 12.2824H174.263L169.187 26.2509C168.943 26.9293 168.612 27.5202 168.192 28.0236C167.778 28.5324 167.253 28.9236 166.619 29.1972C165.984 29.4762 165.219 29.6157 164.322 29.6157Z" fill="#0C111D"/>
<defs>
<linearGradient id="paint0_linear_11557_10847" x1="22.1059" y1="1.77734" x2="22.1059" y2="30.2218" gradientUnits="userSpaceOnUse">
<stop stop-color="#9F75FF"/>
<stop offset="1" stop-color="#6941C6"/>
</linearGradient>
</defs>
</svg>
