<svg width="32" height="32" viewBox="0 0 32 32" fill="none" xmlns="http://www.w3.org/2000/svg">
<path d="M18.0396 11.1361C17.2764 11.6803 16.3424 12.0003 15.3337 12.0003C12.7563 12.0003 10.667 9.91099 10.667 7.33366C10.667 4.75633 12.7563 2.66699 15.3337 2.66699C17.0043 2.66699 18.4699 3.54488 19.2943 4.86452M8.00033 26.7832H11.4807C11.9345 26.7832 12.3855 26.8372 12.8254 26.9452L16.5028 27.8388C17.3008 28.0332 18.132 28.0521 18.9383 27.8955L23.0043 27.1045C24.0784 26.8952 25.0664 26.3809 25.8408 25.6277L28.7175 22.8293C29.539 22.0315 29.539 20.7369 28.7175 19.9377C27.9779 19.2182 26.8066 19.1372 25.9698 19.7474L22.6171 22.1935C22.137 22.5444 21.5527 22.7334 20.9519 22.7334H17.7143L19.7751 22.7333C20.9366 22.7333 21.8775 21.8181 21.8775 20.6882V20.2792C21.8775 19.341 21.2211 18.5229 20.2858 18.2962L17.1051 17.5226C16.5875 17.3971 16.0574 17.3337 15.5245 17.3337C14.2381 17.3337 11.9095 18.3987 11.9095 18.3987L8.00033 20.0335M26.667 8.66699C26.667 11.2443 24.5777 13.3337 22.0003 13.3337C19.423 13.3337 17.3337 11.2443 17.3337 8.66699C17.3337 6.08966 19.423 4.00033 22.0003 4.00033C24.5777 4.00033 26.667 6.08966 26.667 8.66699ZM2.66699 19.467L2.66699 27.2003C2.66699 27.9471 2.66699 28.3204 2.81232 28.6056C2.94015 28.8565 3.14412 29.0605 3.395 29.1883C3.68022 29.3337 4.05359 29.3337 4.80032 29.3337H5.86699C6.61373 29.3337 6.9871 29.3337 7.27231 29.1883C7.5232 29.0605 7.72717 28.8565 7.855 28.6056C8.00033 28.3204 8.00033 27.9471 8.00033 27.2003V19.467C8.00033 18.7203 8.00033 18.3469 7.855 18.0617C7.72717 17.8108 7.5232 17.6068 7.27231 17.479C6.9871 17.3337 6.61373 17.3337 5.86699 17.3337L4.80033 17.3337C4.05359 17.3337 3.68022 17.3337 3.39501 17.479C3.14412 17.6068 2.94015 17.8108 2.81232 18.0617C2.66699 18.3469 2.66699 18.7203 2.66699 19.467Z" stroke="#344054" stroke-width="2.5" stroke-linecap="round" stroke-linejoin="round"/>
</svg>
