<svg width="32" height="32" viewBox="0 0 32 32" fill="none" xmlns="http://www.w3.org/2000/svg">
<path d="M21.3337 24.0003L25.3337 20.0003M25.3337 20.0003L29.3337 24.0003M25.3337 20.0003V28.0003M29.3337 13.3337H2.66699M29.3337 16.0003V10.9337C29.3337 9.44019 29.3337 8.69345 29.043 8.12302C28.7873 7.62125 28.3794 7.21331 27.8776 6.95764C27.3072 6.66699 26.5605 6.66699 25.067 6.66699H6.93366C5.44019 6.66699 4.69345 6.66699 4.12302 6.95764C3.62125 7.2133 3.2133 7.62125 2.95764 8.12302C2.66699 8.69345 2.66699 9.44019 2.66699 10.9337V21.067C2.66699 22.5605 2.66699 23.3072 2.95764 23.8776C3.2133 24.3794 3.62125 24.7873 4.12302 25.043C4.69345 25.3337 5.44019 25.3337 6.93366 25.3337H16.0003" stroke="#344054" stroke-width="2.5" stroke-linecap="round" stroke-linejoin="round"/>
</svg>
